<svg width="17" height="17" viewBox="0 0 17 17" fill="none" xmlns="http://www.w3.org/2000/svg">
<g clip-path="url(#clip0)">
<path d="M16.2204 4.10663C15.7864 3.33463 15.3154 3.19263 14.3564 3.13863C13.3984 3.07363 10.9894 3.04663 8.90239 3.04663C6.81139 3.04663 4.40139 3.07363 3.44439 3.13763C2.48739 3.19263 2.01539 3.33363 1.57739 4.10663C1.13039 4.87763 0.900391 6.20563 0.900391 8.54363C0.900391 8.54563 0.900391 8.54663 0.900391 8.54663C0.900391 8.54863 0.900391 8.54963 0.900391 8.54963V8.55163C0.900391 10.8796 1.13039 12.2176 1.57739 12.9806C2.01539 13.7526 2.48639 13.8926 3.44339 13.9576C4.40139 14.0136 6.81139 14.0466 8.90239 14.0466C10.9894 14.0466 13.3984 14.0136 14.3574 13.9586C15.3164 13.8936 15.7874 13.7536 16.2214 12.9816C16.6724 12.2186 16.9004 10.8806 16.9004 8.55263C16.9004 8.55263 16.9004 8.54963 16.9004 8.54763C16.9004 8.54763 16.9004 8.54563 16.9004 8.54463C16.9004 6.20563 16.6724 4.87763 16.2204 4.10663ZM6.90039 11.5466V5.54663L11.9004 8.54663L6.90039 11.5466Z" fill="white"/>
</g>
<defs>
<clipPath id="clip0">
<rect width="16" height="16" fill="white" transform="translate(0.900391 0.0466309)"/>
</clipPath>
</defs>
</svg>
