<svg width="17" height="17" viewBox="0 0 17 17" fill="none" xmlns="http://www.w3.org/2000/svg">
<g clip-path="url(#clip0)">
<path d="M16.7578 11.0741C16.7148 11.0031 16.4488 10.4332 15.1687 9.26195C13.8286 8.03546 14.0086 8.23462 15.6227 6.11391C16.6058 4.82235 16.9988 4.03362 16.8758 3.69643C16.7588 3.37503 16.0357 3.45981 16.0357 3.45981L13.6315 3.47362C13.6315 3.47362 13.4535 3.44996 13.3205 3.52784C13.1915 3.60474 13.1085 3.78221 13.1085 3.78221C13.1085 3.78221 12.7275 4.78193 12.2194 5.63179C11.1484 7.42518 10.7193 7.51983 10.5443 7.40842C10.1373 7.14912 10.2393 6.36532 10.2393 5.80926C10.2393 4.07108 10.5063 3.34643 9.71826 3.15911C9.45624 3.097 9.26423 3.05559 8.59518 3.04869C7.73712 3.03981 7.01006 3.05164 6.59903 3.24981C6.32501 3.38193 6.114 3.67672 6.24301 3.69348C6.40202 3.71418 6.76204 3.78911 6.95306 4.04545C7.20008 4.37573 7.19108 5.11912 7.19108 5.11912C7.19108 5.11912 7.33309 7.1649 6.86005 7.41926C6.53503 7.59377 6.08999 7.23785 5.13492 5.6101C4.64589 4.777 4.27586 3.85517 4.27586 3.85517C4.27586 3.85517 4.20486 3.68362 4.07785 3.59193C3.92384 3.48052 3.70782 3.44503 3.70782 3.44503L1.42165 3.45883C1.42165 3.45883 1.07863 3.46869 0.952618 3.61559C0.840609 3.74672 0.943617 4.01686 0.943617 4.01686C0.943617 4.01686 2.73375 8.1449 4.7599 10.2262C6.61903 12.1339 8.72919 12.0087 8.72919 12.0087H9.68526C9.68526 12.0087 9.97428 11.9772 10.1213 11.8204C10.2573 11.6765 10.2523 11.4063 10.2523 11.4063C10.2523 11.4063 10.2333 10.1414 10.8293 9.95505C11.4164 9.77167 12.1704 11.1776 12.9695 11.7189C13.5735 12.128 14.0326 12.0383 14.0326 12.0383L16.1697 12.0087C16.1697 12.0087 17.2878 11.9407 16.7578 11.0741Z" fill="white"/>
</g>
<defs>
<clipPath id="clip0">
<rect width="16" height="16" fill="white" transform="translate(0.900391 0.0466309)"/>
</clipPath>
</defs>
</svg>
