<svg width="178" height="38" viewBox="0 0 178 38" fill="none" xmlns="http://www.w3.org/2000/svg">
<path d="M13.2916 17.246L14.1506 21.2355H20.4396L22.5564 17.5222L20.8384 27.2811H29.1828L33.8458 0.827759H25.0719L18.9364 11.3539L16.5128 0.827759H7.831L3.16797 27.2811H11.5123L13.2916 17.246Z" fill="white"/>
<path d="M56.0879 27.2811H57.1923H59.8613H66.457L71.2121 21.2355L74.4332 27.2811H83.3605L76.458 14.4534L87.2873 0.827759H76.9181L72.3471 6.62786L69.2794 0.827759H60.3521L67.0399 13.3793L59.2477 23.2609L56.0879 27.2811Z" fill="white"/>
<path d="M39.9494 27.2811L42.557 21.2355H46.7292L47.2507 27.2811H53.0488H55.7178L55.1349 23.2609L51.791 0.827759H44.4897L31.2676 27.2811H39.9494ZM44.4284 16.4481L46.1463 12.4893L46.4224 16.4481H44.4284Z" fill="white"/>
<path d="M94.0977 30.1659L97.4722 11.2005H89.1279L84.4648 37.5925H103.301L104.62 30.1659H94.0977Z" fill="#0A9F30"/>
<path d="M110.817 11.2005L106.154 37.5925H114.499L119.162 11.2005H110.817Z" fill="#0A9F30"/>
<path d="M136.341 11.2005L134.378 22.4017L128.396 11.2005H122.015L117.352 37.5925H125.696L127.659 26.514L133.58 37.5925H140.022L144.685 11.2005H136.341Z" fill="#0A9F30"/>
<path d="M164.38 18.6271L165.669 11.2005H147.538L142.875 37.5925H161.067L162.355 30.1659H152.539L152.968 27.6801H159.963L161.22 20.6832H154.226L154.563 18.6271H164.38Z" fill="#0A9F30"/>
<path d="M2.61543 30.1659L0.0078125 37.5925H81.5495L82.8686 30.1659H2.61543Z" fill="#0A9F30"/>
<path d="M89.6172 8.31573L90.9363 0.88916H169.073L166.189 8.31573H89.6172Z" fill="white"/>
<path d="M174.56 1.85858C174.92 1.85858 175.281 1.93044 175.641 2.07417C175.965 2.2179 176.254 2.39755 176.542 2.64907C176.794 2.90059 177.01 3.18805 177.118 3.54736C177.263 3.87074 177.335 4.23006 177.335 4.6253C177.335 5.12834 177.227 5.59545 176.974 5.9907C176.722 6.42188 176.398 6.74526 175.965 6.99678C175.533 7.2483 175.064 7.35609 174.596 7.35609C174.092 7.35609 173.623 7.2483 173.227 6.99678C172.794 6.74526 172.47 6.42188 172.218 5.9907C171.966 5.55952 171.857 5.09241 171.857 4.6253C171.857 4.15819 171.966 3.65515 172.218 3.25991C172.47 2.82873 172.794 2.50535 173.227 2.25383C173.587 1.96638 174.056 1.85858 174.56 1.85858ZM174.56 2.39755C174.164 2.39755 173.803 2.50535 173.443 2.68501C173.119 2.86466 172.83 3.15211 172.65 3.4755C172.434 3.79888 172.362 4.19413 172.362 4.58937C172.362 4.98462 172.47 5.34393 172.65 5.70325C172.866 6.02663 173.119 6.31408 173.479 6.49374C173.803 6.6734 174.2 6.78119 174.596 6.78119C174.992 6.78119 175.389 6.6734 175.713 6.49374C176.037 6.31408 176.326 6.02663 176.506 5.70325C176.686 5.37986 176.794 4.98462 176.794 4.58937C176.794 4.19413 176.686 3.79888 176.506 3.4755C176.326 3.15211 176.037 2.86466 175.713 2.68501C175.317 2.50535 174.956 2.39755 174.56 2.39755ZM173.911 6.06256H173.299V3.15211H174.668C174.884 3.15211 175.064 3.18805 175.209 3.25991C175.353 3.33177 175.461 3.43957 175.533 3.54736C175.605 3.65515 175.641 3.83481 175.641 3.97854C175.641 4.19413 175.569 4.37378 175.425 4.51751C175.281 4.66123 175.101 4.76903 174.848 4.80496C174.992 4.84089 175.065 4.91275 175.173 5.02055C175.245 5.12834 175.353 5.27207 175.497 5.48766L175.857 6.06256H175.137L174.884 5.59545C174.776 5.37986 174.668 5.23614 174.596 5.12834C174.524 5.02055 174.452 4.94869 174.344 4.91276C174.272 4.87682 174.164 4.84089 174.056 4.84089H173.911V6.06256ZM173.911 3.61922V4.40971H174.38C174.596 4.40971 174.776 4.37378 174.884 4.33785C174.992 4.26599 175.064 4.15819 175.064 4.01447C175.064 3.90667 175.028 3.79888 174.92 3.72702C174.812 3.65515 174.668 3.61922 174.452 3.61922H173.911Z" fill="white"/>
</svg>
