<svg width="17" height="17" viewBox="0 0 17 17" fill="none" xmlns="http://www.w3.org/2000/svg">
<g clip-path="url(#clip0)">
<path d="M11.9004 0.0466309H5.90039C3.13939 0.0466309 0.900391 2.28563 0.900391 5.04663V11.0466C0.900391 13.8076 3.13939 16.0466 5.90039 16.0466H11.9004C14.6614 16.0466 16.9004 13.8076 16.9004 11.0466V5.04663C16.9004 2.28563 14.6614 0.0466309 11.9004 0.0466309ZM15.4004 11.0466C15.4004 12.9766 13.8304 14.5466 11.9004 14.5466H5.90039C3.97039 14.5466 2.40039 12.9766 2.40039 11.0466V5.04663C2.40039 3.11663 3.97039 1.54663 5.90039 1.54663H11.9004C13.8304 1.54663 15.4004 3.11663 15.4004 5.04663V11.0466Z" fill="white"/>
<path d="M8.90039 4.04663C6.69139 4.04663 4.90039 5.83763 4.90039 8.04663C4.90039 10.2556 6.69139 12.0466 8.90039 12.0466C11.1094 12.0466 12.9004 10.2556 12.9004 8.04663C12.9004 5.83763 11.1094 4.04663 8.90039 4.04663ZM8.90039 10.5466C7.52239 10.5466 6.40039 9.42463 6.40039 8.04663C6.40039 6.66763 7.52239 5.54663 8.90039 5.54663C10.2784 5.54663 11.4004 6.66763 11.4004 8.04663C11.4004 9.42463 10.2784 10.5466 8.90039 10.5466Z" fill="white"/>
<path d="M13.4004 4.04663C13.6765 4.04663 13.9004 3.82277 13.9004 3.54663C13.9004 3.27049 13.6765 3.04663 13.4004 3.04663C13.1242 3.04663 12.9004 3.27049 12.9004 3.54663C12.9004 3.82277 13.1242 4.04663 13.4004 4.04663Z" fill="white"/>
</g>
<defs>
<clipPath id="clip0">
<rect width="16" height="16" fill="white" transform="translate(0.900391 0.0466309)"/>
</clipPath>
</defs>
</svg>
