<svg width="981" height="613" viewBox="0 0 981 613" fill="none" xmlns="http://www.w3.org/2000/svg">
<g filter="url(#filter0_dd)">
<path fill-rule="evenodd" clip-rule="evenodd" d="M275.662 378.097C274.721 378.097 273.908 377.442 273.708 376.522L261.514 320.411C261.049 318.27 257.977 318.327 257.591 320.483L229.255 478.82C229.085 479.774 228.255 480.468 227.287 480.468H88.7393C87.4945 480.468 86.5522 479.343 86.7702 478.118L165.752 34.1818C165.921 33.2273 166.751 32.5321 167.721 32.5321H312.832C313.762 32.5321 314.57 33.1734 314.78 34.0794L354.707 205.894C355.116 207.654 357.463 208.013 358.379 206.456L460.119 33.518C460.479 32.9071 461.134 32.5321 461.843 32.5321H608.261C609.506 32.5321 610.448 33.6569 610.23 34.8824L531.249 478.818C531.079 479.773 530.249 480.468 529.279 480.468H390.733C389.489 480.468 388.546 479.343 388.764 478.118L415.706 326.48C416.098 324.274 413.121 323.191 412.004 325.133L382.108 377.095C381.751 377.715 381.09 378.097 380.374 378.097H275.662ZM382.771 399.979C382.989 398.754 382.047 397.629 380.802 397.629H265.34C264.371 397.629 263.541 398.324 263.371 399.277L245.641 498.352C245.47 499.306 244.641 500 243.672 500H65.3872C64.1425 500 63.2001 498.875 63.4182 497.65L149.349 14.6497C149.519 13.6952 150.349 13 151.319 13H328.384C329.314 13 330.121 13.6413 330.332 14.5473L362.682 153.761C363.091 155.52 365.439 155.879 366.354 154.322L448.915 13.9859C449.275 13.375 449.93 13 450.639 13H793.643C794.888 13 795.831 14.1262 795.611 15.3522L738.868 332.537C738.649 333.763 739.591 334.889 740.837 334.889H915.611C916.856 334.889 917.799 336.014 917.58 337.24L888.808 498.352C888.637 499.305 887.808 500 886.839 500H367.387C366.142 500 365.2 498.875 365.417 497.65L382.771 399.979ZM717.462 354.421C716.217 354.421 715.274 353.295 715.494 352.069L772.237 34.8843C772.456 33.6583 771.513 32.5321 770.268 32.5321H631.942C630.972 32.5321 630.143 33.2276 629.973 34.1823L551.112 478.118C550.894 479.343 551.836 480.468 553.081 480.468H870.448C871.417 480.468 872.246 479.773 872.417 478.82L894.213 356.772C894.431 355.547 893.489 354.421 892.244 354.421H717.462Z" fill="#0A9F30"/>
<path d="M275.662 377.597C274.956 377.597 274.346 377.106 274.196 376.416L262.003 320.305C261.421 317.629 257.581 317.7 257.099 320.395L228.763 478.732C228.635 479.447 228.013 479.968 227.287 479.968H88.7393C87.8057 479.968 87.0989 479.124 87.2625 478.205L166.244 34.2693C166.371 33.5535 166.994 33.0321 167.721 33.0321H312.832C313.53 33.0321 314.135 33.513 314.293 34.1926L354.22 206.008C354.731 208.207 357.665 208.655 358.81 206.709L460.55 33.7715L460.119 33.518L460.55 33.7715C460.82 33.3134 461.312 33.0321 461.843 33.0321H608.261C609.194 33.0321 609.901 33.8757 609.738 34.7948L530.756 478.731C530.629 479.446 530.006 479.968 529.279 479.968H390.733C389.8 479.968 389.093 479.125 389.256 478.206L416.199 326.568C416.689 323.81 412.967 322.456 411.57 324.884L381.674 376.845C381.406 377.311 380.911 377.597 380.374 377.597H275.662ZM380.802 398.129C381.735 398.129 382.442 398.973 382.279 399.892L364.925 497.563C364.653 499.094 365.831 500.5 367.387 500.5H886.839C888.05 500.5 889.087 499.632 889.3 498.44L918.072 337.328C918.346 335.796 917.168 334.389 915.611 334.389H740.837C739.903 334.389 739.196 333.544 739.36 332.625L796.104 15.4403C796.378 13.9077 795.2 12.5 793.643 12.5H450.639C449.753 12.5 448.934 12.9688 448.484 13.7323L365.923 154.069C365.237 155.236 363.476 154.967 363.17 153.648L330.819 14.4341C330.556 13.3016 329.547 12.5 328.384 12.5H151.319C150.107 12.5 149.069 13.369 148.857 14.5621L62.9259 497.562C62.6533 499.094 63.8313 500.5 65.3872 500.5H243.672C244.883 500.5 245.92 499.632 246.133 498.44L263.863 399.365C263.991 398.65 264.613 398.129 265.34 398.129H380.802ZM715.001 351.981C714.727 353.513 715.905 354.921 717.462 354.921H892.244C893.178 354.921 893.885 355.765 893.72 356.685L871.924 478.732C871.797 479.447 871.174 479.968 870.448 479.968H553.081C552.147 479.968 551.441 479.125 551.604 478.206L630.465 34.2697C630.592 33.5537 631.215 33.0321 631.942 33.0321H770.268C771.202 33.0321 771.909 33.8767 771.745 34.7962L715.001 351.981Z" stroke="url(#paint0_linear)"/>
</g>
<defs>
<filter id="filter0_dd" x="0.386719" y="0" width="980.226" height="613" filterUnits="userSpaceOnUse" color-interpolation-filters="sRGB">
<feFlood flood-opacity="0" result="BackgroundImageFix"/>
<feColorMatrix in="SourceAlpha" type="matrix" values="0 0 0 0 0 0 0 0 0 0 0 0 0 0 0 0 0 0 127 0"/>
<feOffset dy="50"/>
<feGaussianBlur stdDeviation="31"/>
<feColorMatrix type="matrix" values="0 0 0 0 0.0638889 0 0 0 0 0.958333 0 0 0 0 0.292002 0 0 0 0.2 0"/>
<feBlend mode="normal" in2="BackgroundImageFix" result="effect1_dropShadow"/>
<feColorMatrix in="SourceAlpha" type="matrix" values="0 0 0 0 0 0 0 0 0 0 0 0 0 0 0 0 0 0 127 0"/>
<feOffset dy="30"/>
<feGaussianBlur stdDeviation="15"/>
<feColorMatrix type="matrix" values="0 0 0 0 0.0638889 0 0 0 0 0.958333 0 0 0 0 0.292002 0 0 0 0.3 0"/>
<feBlend mode="normal" in2="effect1_dropShadow" result="effect2_dropShadow"/>
<feBlend mode="normal" in="SourceGraphic" in2="effect2_dropShadow" result="shape"/>
</filter>
<linearGradient id="paint0_linear" x1="490.5" y1="13" x2="490.5" y2="500" gradientUnits="userSpaceOnUse">
<stop stop-color="#10F44A"/>
<stop offset="1" stop-color="#10F44A"/>
</linearGradient>
</defs>
</svg>
