<svg width="0" height="0" class="hidden">
  <symbol viewBox="0 0 17 17" fill="none" xmlns="http://www.w3.org/2000/svg" id="instagram">
    <g clip-path="url(#clip0)" fill="#fff">
      <path d="M11.9.047h-6a5 5 0 0 0-5 5v6a5 5 0 0 0 5 5h6a5 5 0 0 0 5-5v-6a5 5 0 0 0-5-5zm3.5 11c0 1.93-1.57 3.5-3.5 3.5h-6c-1.93 0-3.5-1.57-3.5-3.5v-6c0-1.93 1.57-3.5 3.5-3.5h6c1.93 0 3.5 1.57 3.5 3.5v6z"></path>
      <path d="M8.9 4.047a4 4 0 1 0 0 8 4 4 0 0 0 0-8zm0 6.5a2.503 2.503 0 0 1-2.5-2.5c0-1.38 1.122-2.5 2.5-2.5s2.5 1.12 2.5 2.5c0 1.378-1.122 2.5-2.5 2.5zm4.5-6.5a.5.5 0 1 0 0-1 .5.5 0 0 0 0 1z"></path>
    </g>
    <defs>
      <clipPath id="clip0">
        <path fill="#fff" transform="translate(.9 .047)" d="M0 0h16v16H0z"></path>
      </clipPath>
    </defs>
  </symbol>
  <symbol viewBox="0 0 178 38" fill="none" xmlns="http://www.w3.org/2000/svg" id="logo">
    <path d="M13.292 17.246l.859 3.99h6.289l2.116-3.714-1.718 9.76h8.345L33.846.827h-8.774l-6.136 10.526L16.513.828H7.83L3.168 27.28h8.344l1.78-10.035zm42.796 10.035h10.369l4.755-6.046 3.221 6.046h8.927l-6.902-12.828L87.288.828h-10.37l-4.57 5.8-3.069-5.8h-8.927l6.688 12.551-7.792 9.882-3.16 4.02zm-16.138 0l2.607-6.046h4.172l.522 6.046h8.467l-.583-4.02L51.79.828h-7.3L31.268 27.28h8.681zm4.478-10.833l1.718-3.959.276 3.96h-1.994z"
      fill="#fff"></path>
    <path d="M94.098 30.166L97.472 11.2h-8.344l-4.663 26.393H103.3l1.319-7.427H94.098zM110.817 11.2l-4.663 26.393h8.345l4.663-26.393h-8.345zm25.524 0l-1.963 11.202-5.982-11.202h-6.381l-4.663 26.393h8.344l1.963-11.079 5.921 11.079h6.442l4.663-26.393h-8.344zm28.039 7.427l1.289-7.426h-18.131l-4.663 26.392h18.192l1.288-7.427h-9.816l.429-2.486h6.995l1.257-6.997h-6.994l.337-2.056h9.817zM2.615 30.166L.008 37.593h81.541l1.32-7.427H2.615z"
      fill="#0A9F30"></path>
    <path d="M89.617 8.316l1.32-7.427h78.136l-2.884 7.427H89.617zm84.943-6.457c.36 0 .721.071 1.081.215.324.144.613.324.901.575.252.252.468.539.576.898.145.324.217.683.217 1.078 0 .503-.108.97-.361 1.366a2.702 2.702 0 0 1-1.009 1.006c-.432.251-.901.36-1.369.36-.504 0-.973-.109-1.369-.36a2.702 2.702 0 0 1-1.009-1.006 2.677 2.677 0 0 1-.361-1.366c0-.467.109-.97.361-1.365a2.702 2.702 0 0 1 1.009-1.006c.36-.288.829-.395 1.333-.395zm0 .539c-.396 0-.757.107-1.117.287-.324.18-.613.467-.793.79-.216.324-.288.72-.288 1.114 0 .396.108.755.288 1.114.216.324.469.611.829.79.324.18.721.288 1.117.288s.793-.108 1.117-.287c.324-.18.613-.467.793-.79a2.33 2.33 0 0 0 .288-1.115c0-.395-.108-.79-.288-1.114a2.092 2.092 0 0 0-.793-.79c-.396-.18-.757-.287-1.153-.287zm-.649 3.665h-.612v-2.91h1.369c.216 0 .396.035.541.107a.85.85 0 0 1 .324.287.852.852 0 0 1 .108.432.73.73 0 0 1-.216.539.979.979 0 0 1-.577.287c.144.036.217.108.325.216.072.107.18.251.324.467l.36.575h-.72l-.253-.468c-.108-.215-.216-.359-.288-.467a.484.484 0 0 0-.252-.215.68.68 0 0 0-.288-.072h-.145v1.222zm0-2.444v.79h.469c.216 0 .396-.035.504-.071a.377.377 0 0 0 .18-.324.327.327 0 0 0-.144-.287c-.108-.072-.252-.108-.468-.108h-.541z"
      fill="#fff"></path>
  </symbol>
  <symbol viewBox="0 0 17 15" fill="none" xmlns="http://www.w3.org/2000/svg" id="telegram">
    <path d="M.48 7.003c1.69-.93 3.576-1.707 5.338-2.488C8.85 3.235 11.894 1.979 14.97.809c.598-.2 1.673-.394 1.779.492-.058 1.255-.296 2.503-.458 3.75-.414 2.744-.891 5.478-1.357 8.212-.16.911-1.302 1.383-2.032.8-1.754-1.185-3.522-2.359-5.255-3.571-.567-.577-.04-1.405.466-1.817 1.445-1.424 2.977-2.634 4.347-4.132.37-.892-.722-.14-1.082.09C9.4 5.997 7.47 7.443 5.384 8.642c-1.066.586-2.307.085-3.372-.242C1.056 8.004-.343 7.606.48 7.003z"
      fill="#fff"></path>
  </symbol>
  <symbol viewBox="0 0 17 17" fill="none" xmlns="http://www.w3.org/2000/svg" id="vk">
    <g clip-path="url(#clip0)">
      <path d="M16.758 11.074c-.043-.07-.31-.64-1.59-1.812-1.34-1.227-1.16-1.027.455-3.148.983-1.292 1.376-2.08 1.253-2.418-.117-.321-.84-.236-.84-.236l-2.405.014s-.178-.024-.31.054c-.13.077-.213.254-.213.254s-.38 1-.889 1.85c-1.07 1.793-1.5 1.888-1.675 1.776-.407-.259-.305-1.043-.305-1.599 0-1.738.267-2.463-.52-2.65-.263-.062-.455-.103-1.124-.11-.858-.01-1.585.003-1.996.2-.274.133-.485.428-.356.444.159.021.519.096.71.352.247.33.238 1.074.238 1.074s.142 2.046-.33 2.3c-.326.175-.771-.181-1.726-1.809a15.079 15.079 0 0 1-.86-1.755s-.07-.171-.197-.263a1.006 1.006 0 0 0-.37-.147l-2.286.014s-.343.01-.47.157c-.111.13-.008.4-.008.4s1.79 4.129 3.816 6.21c1.859 1.908 3.97 1.783 3.97 1.783h.955s.29-.032.436-.189c.136-.143.131-.414.131-.414s-.019-1.265.577-1.451c.587-.183 1.341 1.223 2.14 1.764.604.409 1.064.32 1.064.32l2.137-.03s1.118-.068.588-.935z"
        fill="#fff"></path>
    </g>
    <defs>
      <clipPath id="clip0">
        <path fill="#fff" transform="translate(.9 .047)" d="M0 0h16v16H0z"></path>
      </clipPath>
    </defs>
  </symbol>
  <symbol viewBox="0 0 17 17" fill="none" xmlns="http://www.w3.org/2000/svg" id="youtube">
    <g clip-path="url(#clip0)">
      <path d="M16.22 4.107c-.434-.772-.905-.914-1.864-.968-.958-.065-3.367-.092-5.454-.092-2.09 0-4.5.027-5.458.09-.957.056-1.429.197-1.867.97C1.13 4.877.9 6.206.9 8.544v.008c0 2.328.23 3.666.677 4.429.438.772.91.912 1.866.977.958.056 3.368.089 5.46.089 2.086 0 4.495-.033 5.454-.088.96-.065 1.43-.205 1.864-.977.451-.763.68-2.101.68-4.43v-.007c0-2.34-.229-3.667-.68-4.438zm-9.32 7.44v-6l5 3-5 3z"
        fill="#fff"></path>
    </g>
    <defs>
      <clipPath id="clip0">
        <path fill="#fff" transform="translate(.9 .047)" d="M0 0h16v16H0z"></path>
      </clipPath>
    </defs>
  </symbol>
</svg>