<svg width="0" height="0" class="hidden">
  <symbol viewBox="0 0 17 17" fill="none" xmlns="http://www.w3.org/2000/svg" id="instagram">
    <g clip-path="url(#clip0)" fill="#fff">
      <path d="M11.9.047h-6a5 5 0 0 0-5 5v6a5 5 0 0 0 5 5h6a5 5 0 0 0 5-5v-6a5 5 0 0 0-5-5zm3.5 11c0 1.93-1.57 3.5-3.5 3.5h-6c-1.93 0-3.5-1.57-3.5-3.5v-6c0-1.93 1.57-3.5 3.5-3.5h6c1.93 0 3.5 1.57 3.5 3.5v6z"></path>
      <path d="M8.9 4.047a4 4 0 1 0 0 8 4 4 0 0 0 0-8zm0 6.5a2.503 2.503 0 0 1-2.5-2.5c0-1.38 1.122-2.5 2.5-2.5s2.5 1.12 2.5 2.5c0 1.378-1.122 2.5-2.5 2.5zm4.5-6.5a.5.5 0 1 0 0-1 .5.5 0 0 0 0 1z"></path>
    </g>
    <defs>
      <clipPath id="clip0">
        <path fill="#fff" transform="translate(.9 .047)" d="M0 0h16v16H0z"></path>
      </clipPath>
    </defs>
  </symbol>
  <symbol viewBox="0 0 17 15" fill="none" xmlns="http://www.w3.org/2000/svg" id="telegram">
    <path d="M.48 7.003c1.69-.93 3.576-1.707 5.338-2.488C8.85 3.235 11.894 1.979 14.97.809c.598-.2 1.673-.394 1.779.492-.058 1.255-.296 2.503-.458 3.75-.414 2.744-.891 5.478-1.357 8.212-.16.911-1.302 1.383-2.032.8-1.754-1.185-3.522-2.359-5.255-3.571-.567-.577-.04-1.405.466-1.817 1.445-1.424 2.977-2.634 4.347-4.132.37-.892-.722-.14-1.082.09C9.4 5.997 7.47 7.443 5.384 8.642c-1.066.586-2.307.085-3.372-.242C1.056 8.004-.343 7.606.48 7.003z"
      fill="#fff"></path>
  </symbol>
  <symbol viewBox="0 0 17 17" fill="none" xmlns="http://www.w3.org/2000/svg" id="vk">
    <g clip-path="url(#clip0)">
      <path d="M16.758 11.074c-.043-.07-.31-.64-1.59-1.812-1.34-1.227-1.16-1.027.455-3.148.983-1.292 1.376-2.08 1.253-2.418-.117-.321-.84-.236-.84-.236l-2.405.014s-.178-.024-.31.054c-.13.077-.213.254-.213.254s-.38 1-.889 1.85c-1.07 1.793-1.5 1.888-1.675 1.776-.407-.259-.305-1.043-.305-1.599 0-1.738.267-2.463-.52-2.65-.263-.062-.455-.103-1.124-.11-.858-.01-1.585.003-1.996.2-.274.133-.485.428-.356.444.159.021.519.096.71.352.247.33.238 1.074.238 1.074s.142 2.046-.33 2.3c-.326.175-.771-.181-1.726-1.809a15.079 15.079 0 0 1-.86-1.755s-.07-.171-.197-.263a1.006 1.006 0 0 0-.37-.147l-2.286.014s-.343.01-.47.157c-.111.13-.008.4-.008.4s1.79 4.129 3.816 6.21c1.859 1.908 3.97 1.783 3.97 1.783h.955s.29-.032.436-.189c.136-.143.131-.414.131-.414s-.019-1.265.577-1.451c.587-.183 1.341 1.223 2.14 1.764.604.409 1.064.32 1.064.32l2.137-.03s1.118-.068.588-.935z"
        fill="#fff"></path>
    </g>
    <defs>
      <clipPath id="clip0">
        <path fill="#fff" transform="translate(.9 .047)" d="M0 0h16v16H0z"></path>
      </clipPath>
    </defs>
  </symbol>
  <symbol viewBox="0 0 17 17" fill="none" xmlns="http://www.w3.org/2000/svg" id="youtube">
    <g clip-path="url(#clip0)">
      <path d="M16.22 4.107c-.434-.772-.905-.914-1.864-.968-.958-.065-3.367-.092-5.454-.092-2.09 0-4.5.027-5.458.09-.957.056-1.429.197-1.867.97C1.13 4.877.9 6.206.9 8.544v.008c0 2.328.23 3.666.677 4.429.438.772.91.912 1.866.977.958.056 3.368.089 5.46.089 2.086 0 4.495-.033 5.454-.088.96-.065 1.43-.205 1.864-.977.451-.763.68-2.101.68-4.43v-.007c0-2.34-.229-3.667-.68-4.438zm-9.32 7.44v-6l5 3-5 3z"
        fill="#fff"></path>
    </g>
    <defs>
      <clipPath id="clip0">
        <path fill="#fff" transform="translate(.9 .047)" d="M0 0h16v16H0z"></path>
      </clipPath>
    </defs>
  </symbol>
</svg>