<svg width="17" height="15" viewBox="0 0 17 15" fill="none" xmlns="http://www.w3.org/2000/svg">
<path d="M0.479935 7.0031C2.16968 6.07234 4.05591 5.29552 5.8183 4.51472C8.8503 3.23584 11.8944 1.97912 14.9691 0.809126C15.5674 0.609771 16.6423 0.414812 16.7477 1.30137C16.6899 2.55628 16.4525 3.80385 16.2897 5.05141C15.8763 7.79492 15.3986 10.529 14.9327 13.2635C14.7722 14.1743 13.6312 14.6459 12.9011 14.063C11.1466 12.8778 9.3785 11.7042 7.64634 10.4916C7.07893 9.91501 7.60509 9.08706 8.11185 8.67534C9.55696 7.25118 11.0895 6.0412 12.4591 4.54345C12.8285 3.65129 11.737 4.40318 11.3769 4.63355C9.39856 5.99687 7.46861 7.44343 5.38279 8.64161C4.31736 9.22811 3.07557 8.72689 2.01062 8.39961C1.05575 8.00428 -0.343479 7.60599 0.479839 7.00316L0.479935 7.0031Z" fill="white"/>
</svg>
